<svg width="86" height="19" viewBox="0 0 86 19" fill="none" xmlns="http://www.w3.org/2000/svg">
    <g id="Untitled">
        <path
            d="M8.8043 0.764335C8.5516 0.787845 8.2666 0.831906 7.94929 0.896547C7.63198 0.961187 7.32053 1.04348 7.01498 1.14335C6.7094 1.24326 6.44497 1.34021 6.22168 1.43425C5.99838 1.52826 5.73689 1.65754 5.4372 1.82206C5.13751 1.98661 4.89363 2.13351 4.7056 2.26279C4.51755 2.39207 4.32362 2.53897 4.12384 2.70352C3.92406 2.86803 3.70076 3.07664 3.45396 3.32934C3.20715 3.58201 2.98679 3.83468 2.79286 4.08738C2.59894 4.34005 2.42853 4.58685 2.28163 4.82777C2.13474 5.06871 2.00252 5.30669 1.885 5.54174C1.76747 5.77679 1.64995 6.05886 1.53242 6.38793C1.4149 6.71699 1.33261 6.96966 1.28562 7.14597C1.23859 7.32224 1.18571 7.58669 1.12696 7.93927C1.06818 8.29184 1.03292 8.54451 1.02119 8.6973C1.00944 8.85007 1.00648 9.11745 1.01237 9.4994C1.01823 9.88135 1.03881 10.2104 1.07408 10.4866C1.10931 10.7628 1.15044 11.0096 1.19746 11.227C1.24449 11.4444 1.30617 11.6795 1.38256 11.9322C1.45896 12.1849 1.54711 12.4346 1.64699 12.6814C1.74689 12.9282 1.86735 13.1868 2.00839 13.4571C2.14942 13.7274 2.29046 13.9713 2.43149 14.1887C2.5725 14.4061 2.7488 14.647 2.96034 14.9115C3.17188 15.1759 3.39814 15.4286 3.63905 15.6695C3.87997 15.9104 4.11209 16.1219 4.33538 16.3041C4.55868 16.4863 4.80255 16.6655 5.06697 16.8418C5.33143 17.0181 5.60468 17.1885 5.88672 17.353C6.16879 17.5176 6.4156 17.6468 6.62714 17.7409C6.83868 17.8349 7.09431 17.926 7.394 18.0141C7.69369 18.1023 7.97573 18.1698 8.24016 18.2169C8.50461 18.2638 8.7661 18.2991 9.02464 18.3226C9.2832 18.3461 9.58878 18.3549 9.94136 18.3491C10.2939 18.3432 10.6759 18.3109 11.0872 18.2521C11.4986 18.1933 11.8041 18.1375 12.0039 18.0846C12.2037 18.0318 12.4711 17.9436 12.806 17.8202C13.141 17.6968 13.5112 17.5264 13.9166 17.309C14.3221 17.0916 14.6335 16.9064 14.851 16.7537C15.0684 16.6009 15.2623 16.454 15.4327 16.3129C15.6031 16.1719 15.8499 15.931 16.1731 15.5902C16.4963 15.2493 16.7519 14.9349 16.94 14.647C17.128 14.3591 17.2691 14.1093 17.3631 13.8978C17.4571 13.6863 17.5276 13.507 17.5746 13.3601C17.6216 13.2132 17.6716 13.0016 17.7245 12.7255C17.7774 12.4493 17.8067 12.2377 17.8126 12.0909C17.8185 11.9439 17.8126 11.8617 17.795 11.844C17.7861 11.8352 17.7774 11.8264 17.7685 11.8176C17.7568 11.8294 17.745 11.8411 17.7333 11.8528C17.7098 11.8763 17.6304 12.0527 17.4953 12.3817C17.3601 12.7108 17.2279 12.9899 17.0986 13.2191C16.9694 13.4483 16.8459 13.6422 16.7284 13.8008C16.6109 13.9595 16.5198 14.0711 16.4552 14.1358C16.3906 14.2004 16.3465 14.2357 16.323 14.2415C16.3112 14.2445 16.2995 14.2474 16.2877 14.2504C16.3053 14.2122 16.323 14.174 16.3406 14.1358C16.3758 14.0594 16.4405 13.9536 16.5345 13.8185C16.6285 13.6833 16.6726 13.5952 16.6667 13.554C16.6608 13.5129 16.6667 13.4394 16.6844 13.3337C16.702 13.2279 16.7666 12.9635 16.8783 12.5404C16.9899 12.1173 17.0663 11.7941 17.1074 11.5708C17.1486 11.3475 17.1838 11.0214 17.2132 10.5924C17.2426 10.1634 17.2455 9.8226 17.222 9.56993C17.1985 9.31724 17.1809 9.17327 17.1691 9.138C17.1574 9.10277 17.1456 9.08512 17.1339 9.08512C17.1222 9.08512 17.1016 9.11745 17.0722 9.18209C17.0428 9.24673 16.9899 9.4289 16.9135 9.72859C16.8371 10.0283 16.7461 10.3221 16.6403 10.61C16.5345 10.8979 16.4258 11.1594 16.3142 11.3945C16.2025 11.6295 16.0762 11.8646 15.9351 12.0996C15.7941 12.3347 15.703 12.464 15.6619 12.4875C15.6413 12.4992 15.6208 12.511 15.6002 12.5228L15.6002 12.3729C15.6002 12.273 15.5943 12.2201 15.5826 12.2142C15.5767 12.2113 15.5708 12.2084 15.5649 12.2054C15.5297 12.2759 15.4944 12.3465 15.4592 12.417C15.3886 12.558 15.2594 12.7519 15.0713 12.9987C14.8833 13.2455 14.6717 13.4835 14.4367 13.7127C14.2016 13.9419 13.9548 14.1534 13.6963 14.3473C13.4377 14.5412 13.1762 14.7146 12.9118 14.8674C12.6474 15.0202 12.427 15.1348 12.2507 15.2111C12.0744 15.2875 11.8776 15.358 11.6601 15.4227C11.4427 15.4873 11.3193 15.5314 11.29 15.5549C11.2606 15.5784 11.2312 15.5843 11.2018 15.5725C11.1724 15.5608 11.1431 15.5637 11.1136 15.5813C11.0843 15.599 11.0049 15.6195 10.8757 15.6431C10.7464 15.6665 10.5877 15.6871 10.3997 15.7047C10.2116 15.7224 10.1029 15.7312 10.0736 15.7312L10.0295 15.7312L10.0295 15.6607C9.92371 15.6665 9.81794 15.6724 9.71217 15.6783C9.50063 15.69 9.20387 15.6665 8.82192 15.6078C8.63093 15.5784 8.43997 15.549 8.24898 15.5196C8.25191 15.5079 8.25484 15.4961 8.2578 15.4844C8.26367 15.4609 8.19023 15.4286 8.03744 15.3874C7.88465 15.3463 7.79357 15.3169 7.76419 15.2993C7.73482 15.2817 7.72306 15.2611 7.72893 15.2376C7.73482 15.2141 7.62316 15.1582 7.394 15.0701C7.16481 14.982 7.03553 14.9232 7.00616 14.8938C6.99147 14.8791 6.97678 14.8644 6.96207 14.8497C6.95327 14.8586 6.94445 14.8674 6.93562 14.8762C6.918 14.8938 6.77993 14.8262 6.52137 14.6734C6.26281 14.5207 6.03069 14.3591 5.82501 14.1887C5.61936 14.0182 5.42251 13.8302 5.23445 13.6245C5.04642 13.4189 4.88188 13.2132 4.74084 13.0075C4.59983 12.8019 4.48524 12.6168 4.39709 12.4522C4.30894 12.2877 4.20906 12.0732 4.0974 11.8088C3.98577 11.5444 3.89468 11.2917 3.82415 11.0507C3.75365 10.8098 3.69194 10.4954 3.63905 10.1076C3.58617 9.71977 3.56266 9.36719 3.56855 9.04988C3.57441 8.73254 3.59499 8.4505 3.63023 8.20369C3.6655 7.95689 3.70956 7.73359 3.76244 7.53381C3.81536 7.33399 3.87997 7.13128 3.95636 6.9256C4.03276 6.71993 4.11209 6.5319 4.19437 6.36149C4.27663 6.19108 4.39123 5.98833 4.53813 5.75328C4.68502 5.51823 4.75849 5.38602 4.75849 5.35664L4.75849 5.31258C4.74084 5.32138 4.72322 5.3302 4.7056 5.33903C4.68796 5.34782 4.67034 5.35664 4.65272 5.36547C4.65858 5.35371 4.66447 5.34196 4.67034 5.3302C4.68209 5.30669 4.87308 5.08926 5.24328 4.67793C5.61347 4.26658 5.9396 3.96396 6.22168 3.77004C6.50372 3.57615 6.76521 3.42042 7.00616 3.3029C7.24707 3.18537 7.49977 3.08253 7.76419 2.99438C8.02862 2.90623 8.2578 2.84159 8.45173 2.80046C8.64562 2.75933 8.84247 2.72703 9.04228 2.70352C9.24207 2.68001 9.51825 2.67118 9.87082 2.67707C10.2234 2.68294 10.529 2.70645 10.7875 2.74758C11.0461 2.78871 11.3076 2.84748 11.572 2.92388C11.8364 3.00025 12.0744 3.08253 12.286 3.17066C12.4975 3.25881 12.7179 3.36754 12.9471 3.49679C13.1762 3.62607 13.4054 3.77593 13.6346 3.94634C13.8638 4.11675 14.087 4.30774 14.3045 4.51928C14.5219 4.73082 14.704 4.92767 14.851 5.10984C14.9979 5.292 15.1183 5.45359 15.2123 5.59463C15.3064 5.73566 15.4239 5.94134 15.5649 6.21163C15.706 6.48194 15.8206 6.73461 15.9087 6.96966C15.9968 7.20471 16.0703 7.43683 16.129 7.66602C16.1878 7.89518 16.2348 8.13023 16.2701 8.37117C16.2877 8.49163 16.3053 8.61208 16.323 8.73254C16.3142 8.60915 16.3053 8.48577 16.2965 8.36235C16.2789 8.11554 16.2436 7.86874 16.1907 7.62193C16.1379 7.37512 16.0703 7.13714 15.988 6.90798C15.9057 6.6788 15.8147 6.47312 15.7148 6.29095C15.6149 6.10879 15.5708 6.00009 15.5826 5.96482C15.5943 5.92958 15.5914 5.88845 15.5737 5.84143C15.5561 5.79441 15.4944 5.68864 15.3886 5.52412C15.2829 5.35958 15.1359 5.16272 14.9479 4.93354C14.7599 4.70438 14.566 4.49577 14.3662 4.30774C14.1664 4.11968 13.9578 3.94634 13.7404 3.78769C13.5229 3.62903 13.3202 3.49386 13.1322 3.38223C12.9441 3.27056 12.6444 3.12073 12.2331 2.93267C11.8218 2.74465 11.5162 2.61243 11.3164 2.53604C11.1166 2.45964 10.9139 2.40383 10.7082 2.36856C10.6053 2.35094 10.5025 2.33329 10.3997 2.31567C10.4291 2.31274 10.4584 2.30981 10.4878 2.30685C10.5466 2.30099 10.6524 2.31274 10.8052 2.34212C10.8816 2.3568 10.9579 2.37149 11.0343 2.38618L11.0343 2.33329C11.0343 2.29806 10.9697 2.26865 10.8404 2.24517C10.7111 2.22166 10.5202 2.19815 10.2675 2.17464C10.0148 2.15113 9.7915 2.1394 9.59757 2.1394C9.40365 2.1394 9.17743 2.15113 8.91887 2.17464C8.66033 2.19815 8.36064 2.2481 8.01979 2.3245C7.67897 2.40089 7.40279 2.48022 7.19125 2.56248C6.97971 2.64474 6.86219 2.67118 6.83868 2.64181C6.81517 2.61243 6.7094 2.64767 6.52137 2.74758C6.33331 2.84748 6.21875 2.89744 6.17759 2.89744L6.11591 2.89744C6.11884 2.88568 6.12177 2.87393 6.1247 2.86217C6.13059 2.83866 6.20403 2.77695 6.34507 2.67707C6.4861 2.57717 6.68589 2.46847 6.94445 2.35094C7.20301 2.23342 7.41162 2.1482 7.57027 2.09531C7.72893 2.04243 7.92285 1.98954 8.15203 1.93666C8.38119 1.88377 8.67795 1.83971 9.04228 1.80444C9.40661 1.76918 9.72392 1.75449 9.99424 1.76035C10.2645 1.76625 10.4643 1.778 10.5936 1.79562C10.6583 1.80444 10.7229 1.81327 10.7875 1.82206L10.7875 1.75156C10.7875 1.70454 10.6759 1.67223 10.4526 1.65458C10.2293 1.63696 10.1147 1.61639 10.1088 1.5929C10.1059 1.58115 10.1029 1.56939 10.1 1.55764C10.2028 1.5635 10.3057 1.56939 10.4085 1.57526C10.6142 1.58701 10.8375 1.61345 11.0784 1.65458C11.3193 1.69574 11.6219 1.77211 11.9863 1.88377C12.3506 1.9954 12.7003 2.13058 13.0352 2.28923C13.3701 2.44789 13.6493 2.59775 13.8726 2.73875C14.0959 2.87979 14.2339 2.9738 14.2868 3.02083C14.3397 3.06785 14.372 3.09133 14.3838 3.09133L14.4014 3.09133C14.3956 3.0796 14.3897 3.06785 14.3838 3.05609C14.3779 3.04434 14.372 3.03258 14.3662 3.02083C14.372 3.01789 14.3779 3.01496 14.3838 3.012C14.3956 3.00614 14.5219 3.10605 14.7628 3.31169C15.0037 3.51737 15.2123 3.71422 15.3886 3.90228C15.5649 4.09031 15.7412 4.29892 15.9175 4.52807C16.0938 4.75726 16.2613 5.00114 16.4199 5.25967C16.5786 5.51823 16.7255 5.79148 16.8607 6.07941C16.9958 6.36735 17.0722 6.51721 17.0898 6.52896C17.0986 6.53483 17.1074 6.54072 17.1163 6.54658C17.1045 6.48194 17.0927 6.4173 17.081 6.35266C17.0575 6.22338 17.0105 6.06766 16.94 5.88549C16.8695 5.70333 16.7402 5.45359 16.5521 5.13628C16.3641 4.81897 16.1525 4.51635 15.9175 4.22838C15.6824 3.94045 15.4738 3.70836 15.2917 3.53206C15.1095 3.35578 14.989 3.24705 14.9303 3.20592C14.9009 3.18537 14.8715 3.16479 14.8422 3.14421C14.851 3.13249 14.8598 3.12073 14.8686 3.10898C14.8774 3.09722 14.8862 3.08547 14.895 3.07371C15.0096 3.18241 15.1242 3.29114 15.2388 3.39984C15.468 3.61728 15.6648 3.82292 15.8294 4.01684C15.9939 4.21077 16.1643 4.43406 16.3406 4.68676C16.4287 4.81308 16.5169 4.93943 16.605 5.06578C16.608 5.05988 16.6109 5.05402 16.6139 5.04813C16.6197 5.03637 16.5874 4.96001 16.5169 4.81897C16.4816 4.74844 16.4464 4.67793 16.4111 4.60743C16.4229 4.61329 16.4346 4.61916 16.4464 4.62505C16.4699 4.63681 16.5169 4.70145 16.5874 4.81897C16.6579 4.9365 16.699 4.99524 16.7108 4.99524L16.7284 4.99524C16.699 4.94825 16.6697 4.90123 16.6403 4.85421C16.5815 4.76019 16.4258 4.55452 16.1731 4.23721C15.9205 3.9199 15.6971 3.66427 15.5032 3.47035C15.3093 3.27646 15.0713 3.06195 14.7893 2.8269C14.5072 2.59185 14.3221 2.42438 14.2339 2.3245C14.1458 2.22459 13.9519 2.09531 13.6522 1.93666C13.3525 1.778 12.9823 1.61345 12.5416 1.44304C12.1009 1.27263 11.619 1.12867 11.096 1.01114C10.573 0.893615 10.2146 0.820151 10.0207 0.790777C9.82676 0.761403 9.6387 0.743785 9.45657 0.737892C9.2744 0.732029 9.05697 0.740824 8.8043 0.764335Z"
            fill="#335EEA" fill-rule="nonzero" opacity="1" stroke="none" />
        <g opacity="1">
            <path
                d="M29.341 6.83688C28.9342 6.39879 28.5404 6.10673 28.1597 5.96069C27.779 5.81466 27.3956 5.74165 27.0097 5.74165C26.436 5.74165 25.9171 5.84335 25.4529 6.04675C24.9887 6.25015 24.5898 6.53178 24.256 6.89164C23.9222 7.25151 23.664 7.67135 23.4815 8.15116C23.299 8.63098 23.2077 9.1473 23.2077 9.70014C23.2077 10.2947 23.299 10.8423 23.4815 11.343C23.664 11.8437 23.9222 12.2765 24.256 12.6416C24.5898 13.0067 24.9887 13.2935 25.4529 13.5022C25.9171 13.7108 26.436 13.8151 27.0097 13.8151C27.4582 13.8151 27.8937 13.7082 28.3162 13.4943C28.7386 13.2805 29.1324 12.9389 29.4975 12.4695L31.1247 13.6273C30.624 14.3158 30.0138 14.8164 29.2941 15.1294C28.5743 15.4423 27.8077 15.5988 26.9941 15.5988C26.1387 15.5988 25.3538 15.4605 24.6393 15.1841C23.9248 14.9077 23.3094 14.5166 22.7931 14.0107C22.2767 13.5048 21.8725 12.8972 21.5805 12.1879C21.2884 11.4786 21.1424 10.6911 21.1424 9.82531C21.1424 8.93869 21.2884 8.13291 21.5805 7.40797C21.8725 6.68303 22.2767 6.065 22.7931 5.55389C23.3094 5.04278 23.9248 4.64902 24.6393 4.3726C25.3538 4.09619 26.1387 3.95798 26.9941 3.95798C27.7451 3.95798 28.4413 4.09097 29.0828 4.35696C29.7243 4.62294 30.3215 5.07408 30.8743 5.71035L29.341 6.83688Z"
                fill="#335EEA" fill-rule="evenodd" opacity="1" stroke="none" />
            <path
                d="M33.7845 12.2192C33.8471 12.7824 34.0661 13.2205 34.4417 13.5335C34.8172 13.8464 35.2709 14.0028 35.8029 14.0028C36.2723 14.0028 36.666 13.9064 36.9842 13.7134C37.3023 13.5204 37.5813 13.2779 37.8212 12.9858L39.1668 14.0028C38.7287 14.5452 38.2385 14.9312 37.6961 15.1607C37.1537 15.3901 36.5852 15.5049 35.9906 15.5049C35.4274 15.5049 34.8954 15.411 34.3947 15.2232C33.894 15.0355 33.4612 14.7695 33.0961 14.4253C32.731 14.0811 32.4415 13.6664 32.2277 13.1814C32.0139 12.6964 31.907 12.1566 31.907 11.562C31.907 10.9675 32.0139 10.4277 32.2277 9.94265C32.4415 9.45762 32.731 9.043 33.0961 8.69878C33.4612 8.35456 33.894 8.08858 34.3947 7.90082C34.8954 7.71307 35.4274 7.61919 35.9906 7.61919C36.5122 7.61919 36.9894 7.71046 37.4223 7.893C37.8551 8.07554 38.2254 8.33892 38.5331 8.68313C38.8408 9.02735 39.0808 9.4524 39.2529 9.9583C39.425 10.4642 39.511 11.0457 39.511 11.7028L39.511 12.2192L33.7845 12.2192ZM37.6335 10.811C37.623 10.2582 37.4509 9.8227 37.1172 9.50456C36.7834 9.18642 36.3192 9.02735 35.7246 9.02735C35.1614 9.02735 34.7155 9.18903 34.3869 9.51238C34.0583 9.83574 33.8575 10.2686 33.7845 10.811L37.6335 10.811Z"
                fill="#335EEA" fill-rule="evenodd" opacity="1" stroke="none" />
            <path
                d="M41.2947 3.48859L43.1722 3.48859L43.1722 3.48859L43.1722 15.3171L43.1722 15.3171L41.2947 15.3171L41.2947 15.3171L41.2947 3.48859L41.2947 3.48859Z"
                fill="#335EEA" fill-rule="evenodd" opacity="1" stroke="none" />
            <path
                d="M52.1844 15.3171L50.4008 15.3171L50.4008 14.1124L50.3695 14.1124C50.1922 14.4879 49.921 14.8138 49.5559 15.0903C49.1908 15.3667 48.6953 15.5049 48.0695 15.5049C47.5688 15.5049 47.1438 15.424 46.7943 15.2624C46.4449 15.1007 46.1607 14.8816 45.9416 14.6052C45.7226 14.3288 45.5661 14.0133 45.4722 13.6586C45.3783 13.304 45.3314 12.9337 45.3314 12.5477L45.3314 7.80695L47.209 7.80695L47.209 11.609C47.209 11.8176 47.2194 12.0497 47.2402 12.3052C47.2611 12.5608 47.3159 12.8007 47.4045 13.025C47.4932 13.2492 47.6288 13.437 47.8113 13.5882C47.9939 13.7395 48.252 13.8151 48.5858 13.8151C48.8987 13.8151 49.1621 13.7629 49.376 13.6586C49.5898 13.5543 49.7671 13.4135 49.9079 13.2362C50.0487 13.0589 50.1504 12.8555 50.213 12.626C50.2756 12.3965 50.3069 12.1566 50.3069 11.9063L50.3069 7.80695L52.1844 7.80695L52.1844 15.3171Z"
                fill="#335EEA" fill-rule="evenodd" opacity="1" stroke="none" />
            <path
                d="M54.3123 7.80695L56.1899 7.80695L56.1899 8.99606L56.2212 8.99606C56.4298 8.55796 56.7271 8.21896 57.113 7.97905C57.4989 7.73915 57.9422 7.61919 58.4429 7.61919C58.5577 7.61919 58.6698 7.62962 58.7793 7.65048C58.8888 7.67135 59.001 7.69742 59.1157 7.72871L59.1157 9.54367C58.9592 9.50195 58.8054 9.46805 58.6541 9.44197C58.5029 9.4159 58.3543 9.40286 58.2082 9.40286C57.7701 9.40286 57.4181 9.4837 57.1521 9.64537C56.8861 9.80705 56.6827 9.9922 56.5419 10.2008C56.4011 10.4094 56.3072 10.618 56.2603 10.8267C56.2133 11.0353 56.1899 11.1917 56.1899 11.296L56.1899 15.3171L54.3123 15.3171L54.3123 7.80695Z"
                fill="#335EEA" fill-rule="evenodd" opacity="1" stroke="none" />
            <path
                d="M61.6191 12.2192C61.6817 12.7824 61.9007 13.2205 62.2762 13.5335C62.6518 13.8464 63.1055 14.0028 63.6375 14.0028C64.1068 14.0028 64.5006 13.9064 64.8188 13.7134C65.1369 13.5204 65.4159 13.2779 65.6558 12.9858L67.0014 14.0028C66.5633 14.5452 66.0731 14.9312 65.5307 15.1607C64.9883 15.3901 64.4198 15.5049 63.8252 15.5049C63.262 15.5049 62.73 15.411 62.2293 15.2232C61.7286 15.0355 61.2957 14.7695 60.9307 14.4253C60.5656 14.0811 60.2761 13.6664 60.0623 13.1814C59.8485 12.6964 59.7416 12.1566 59.7416 11.562C59.7416 10.9675 59.8485 10.4277 60.0623 9.94265C60.2761 9.45762 60.5656 9.043 60.9307 8.69878C61.2957 8.35456 61.7286 8.08858 62.2293 7.90082C62.73 7.71307 63.262 7.61919 63.8252 7.61919C64.3468 7.61919 64.824 7.71046 65.2568 7.893C65.6897 8.07554 66.06 8.33892 66.3677 8.68313C66.6754 9.02735 66.9153 9.4524 67.0875 9.9583C67.2596 10.4642 67.3456 11.0457 67.3456 11.7028L67.3456 12.2192L61.6191 12.2192ZM65.4681 10.811C65.4576 10.2582 65.2855 9.8227 64.9517 9.50456C64.618 9.18642 64.1538 9.02735 63.5592 9.02735C62.996 9.02735 62.5501 9.18903 62.2215 9.51238C61.8929 9.83574 61.6921 10.2686 61.6191 10.811L65.4681 10.811Z"
                fill="#335EEA" fill-rule="evenodd" opacity="1" stroke="none" />
            <path
                d="M73.7918 14.2845L73.7449 14.2845C73.4737 14.7121 73.1295 15.0225 72.7123 15.2154C72.295 15.4084 71.8361 15.5049 71.3354 15.5049C70.9912 15.5049 70.6548 15.4579 70.3262 15.3641C69.9976 15.2702 69.7056 15.1294 69.45 14.9416C69.1945 14.7539 68.9885 14.5192 68.832 14.2375C68.6755 13.9559 68.5973 13.6273 68.5973 13.2518C68.5973 12.845 68.6703 12.4982 68.8164 12.2114C68.9624 11.9245 69.158 11.6846 69.4031 11.4916C69.6482 11.2987 69.9325 11.1448 70.2558 11.0301C70.5792 10.9153 70.9156 10.8293 71.265 10.7719C71.6144 10.7145 71.9665 10.678 72.3211 10.6624C72.6758 10.6467 73.0095 10.6389 73.3225 10.6389L73.7918 10.6389L73.7918 10.4355C73.7918 9.96612 73.6302 9.61408 73.3068 9.37939C72.9835 9.1447 72.5714 9.02735 72.0708 9.02735C71.6744 9.02735 71.3041 9.09776 70.9599 9.23857C70.6157 9.37939 70.3184 9.56975 70.0681 9.80966L69.0823 8.82395C69.4996 8.39629 69.9872 8.08858 70.5453 7.90082C71.1033 7.71307 71.6796 7.61919 72.2742 7.61919C72.8061 7.61919 73.2547 7.67917 73.6197 7.79912C73.9848 7.91908 74.2873 8.07293 74.5272 8.26069C74.7671 8.44844 74.9523 8.66488 75.0827 8.91C75.213 9.15513 75.3069 9.40286 75.3643 9.6532C75.4217 9.90354 75.4556 10.1461 75.466 10.3807C75.4764 10.6154 75.4816 10.8214 75.4816 10.9988L75.4816 15.3171L73.7918 15.3171L73.7918 14.2845ZM73.6823 11.9532L73.2912 11.9532C73.0304 11.9532 72.7383 11.9636 72.415 11.9845C72.0916 12.0053 71.7865 12.0549 71.4997 12.1331C71.2128 12.2114 70.9703 12.3261 70.7721 12.4773C70.5739 12.6286 70.4749 12.8398 70.4749 13.111C70.4749 13.2883 70.514 13.437 70.5922 13.5569C70.6704 13.6769 70.7721 13.7786 70.8973 13.862C71.0225 13.9455 71.1633 14.0054 71.3197 14.042C71.4762 14.0785 71.6327 14.0967 71.7891 14.0967C72.4358 14.0967 72.9131 13.9429 73.2208 13.6352C73.5285 13.3274 73.6823 12.9076 73.6823 12.3756L73.6823 11.9532Z"
                fill="#335EEA" fill-rule="evenodd" opacity="1" stroke="none" />
            <path
                d="M77.5 7.80695L79.2837 7.80695L79.2837 9.0117L79.315 9.0117C79.4923 8.63619 79.7635 8.31023 80.1286 8.03382C80.4936 7.7574 80.9891 7.61919 81.6149 7.61919C82.1156 7.61919 82.5407 7.70264 82.8901 7.86953C83.2395 8.03642 83.5238 8.25547 83.7428 8.52667C83.9619 8.79787 84.1183 9.1108 84.2122 9.46544C84.3061 9.82009 84.353 10.1904 84.353 10.5763L84.353 15.3171L82.4755 15.3171L82.4755 11.5151C82.4755 11.3065 82.4651 11.0744 82.4442 10.8188C82.4233 10.5633 82.3686 10.3234 82.2799 10.0991C82.1913 9.87485 82.053 9.6871 81.8653 9.53585C81.6775 9.3846 81.422 9.30898 81.0986 9.30898C80.7857 9.30898 80.5223 9.36114 80.3085 9.46544C80.0947 9.56975 79.9173 9.71057 79.7765 9.88789C79.6357 10.0652 79.534 10.2686 79.4714 10.4981C79.4088 10.7276 79.3775 10.9675 79.3775 11.2178L79.3775 15.3171L77.5 15.3171L77.5 7.80695Z"
                fill="#335EEA" fill-rule="evenodd" opacity="1" stroke="none" />
        </g>
    </g>
</svg>