<?xml version="1.0" encoding="UTF-8" standalone="no"?>
<!DOCTYPE svg PUBLIC "-//W3C//DTD SVG 1.1//EN" "http://www.w3.org/Graphics/SVG/1.1/DTD/svg11.dtd">
<!-- Created with Vectornator (http://vectornator.io/) -->
<svg height="100%" stroke-miterlimit="10" style="fill-rule:nonzero;clip-rule:evenodd;stroke-linecap:round;stroke-linejoin:round;" version="1.1" viewBox="0 0 20 20" width="100%" xml:space="preserve" xmlns="http://www.w3.org/2000/svg" xmlns:xlink="http://www.w3.org/1999/xlink">
<defs/>
<g id="Untitled">
<path d="M9.36768 1.25467C9.11499 1.27818 8.82998 1.32224 8.51267 1.38688C8.19536 1.45152 7.88392 1.53381 7.57836 1.63369C7.27278 1.7336 7.00836 1.83054 6.78506 1.92459C6.56176 2.0186 6.30027 2.14788 6.00058 2.3124C5.70089 2.47695 5.45702 2.62385 5.26899 2.75313C5.08093 2.88241 4.88701 3.02931 4.68722 3.19385C4.48744 3.35837 4.26414 3.56698 4.01734 3.81968C3.77053 4.07235 3.55017 4.32502 3.35625 4.57771C3.16233 4.83038 2.99192 5.07719 2.84502 5.3181C2.69812 5.55905 2.56591 5.79703 2.44838 6.03208C2.33086 6.26713 2.21333 6.5492 2.0958 6.87827C1.97828 7.20733 1.89599 7.46 1.849 7.6363C1.80198 7.81258 1.74909 8.07703 1.69034 8.42961C1.63157 8.78218 1.5963 9.03485 1.58457 9.18764C1.57282 9.3404 1.56986 9.60779 1.57575 9.98974C1.58161 10.3717 1.60219 10.7008 1.63746 10.977C1.6727 11.2531 1.71383 11.4999 1.76085 11.7174C1.80787 11.9348 1.86955 12.1698 1.94594 12.4225C2.02234 12.6752 2.11049 12.9249 2.21037 13.1717C2.31028 13.4186 2.43073 13.6771 2.57177 13.9474C2.71281 14.2177 2.85384 14.4616 2.99488 14.679C3.13588 14.8964 3.31219 15.1373 3.52373 15.4018C3.73527 15.6662 3.96152 15.9189 4.20244 16.1598C4.44335 16.4007 4.67547 16.6123 4.89876 16.7944C5.12206 16.9766 5.36593 17.1558 5.63036 17.3321C5.89481 17.5084 6.16806 17.6788 6.4501 17.8434C6.73218 18.0079 6.97898 18.1372 7.19052 18.2312C7.40206 18.3252 7.65769 18.4163 7.95738 18.5044C8.25707 18.5926 8.53911 18.6602 8.80354 18.7072C9.06799 18.7542 9.32949 18.7894 9.58802 18.813C9.84658 18.8365 10.1522 18.8453 10.5047 18.8394C10.8573 18.8335 11.2393 18.8012 11.6506 18.7424C12.0619 18.6837 12.3675 18.6279 12.5673 18.575C12.7671 18.5221 13.0344 18.4339 13.3694 18.3105C13.7044 18.1871 14.0746 18.0167 14.48 17.7993C14.8855 17.5819 15.1969 17.3968 15.4144 17.244C15.6318 17.0912 15.8257 16.9443 15.9961 16.8033C16.1665 16.6622 16.4133 16.4213 16.7365 16.0805C17.0597 15.7397 17.3153 15.4253 17.5034 15.1373C17.6914 14.8494 17.8324 14.5997 17.9264 14.3881C18.0205 14.1766 18.091 13.9974 18.138 13.8505C18.185 13.7036 18.235 13.492 18.2878 13.2158C18.3407 12.9396 18.3701 12.7281 18.376 12.5812C18.3819 12.4343 18.376 12.352 18.3584 12.3344C18.3495 12.3256 18.3407 12.3167 18.3319 12.3079C18.3202 12.3197 18.3084 12.3314 18.2966 12.3432C18.2732 12.3667 18.1938 12.543 18.0587 12.8721C17.9235 13.2011 17.7913 13.4802 17.662 13.7094C17.5327 13.9386 17.4093 14.1325 17.2918 14.2912C17.1743 14.4498 17.0832 14.5615 17.0186 14.6261C16.9539 14.6907 16.9099 14.726 16.8863 14.7319C16.8746 14.7348 16.8629 14.7378 16.8511 14.7407C16.8687 14.7025 16.8863 14.6643 16.904 14.6261C16.9392 14.5497 17.0039 14.4439 17.0979 14.3088C17.1919 14.1737 17.236 14.0855 17.2301 14.0444C17.2242 14.0032 17.2301 13.9298 17.2477 13.824C17.2654 13.7182 17.33 13.4538 17.4417 13.0307C17.5533 12.6076 17.6297 12.2844 17.6708 12.0611C17.712 11.8378 17.7472 11.5117 17.7766 11.0827C17.806 10.6538 17.8089 10.3129 17.7854 10.0603C17.7619 9.80757 17.7443 9.66361 17.7325 9.62834C17.7208 9.5931 17.709 9.57545 17.6973 9.57545C17.6855 9.57545 17.665 9.60779 17.6356 9.67243C17.6062 9.73707 17.5533 9.91924 17.4769 10.2189C17.4005 10.5186 17.3094 10.8124 17.2037 11.1004C17.0979 11.3883 16.9892 11.6498 16.8775 11.8848C16.7659 12.1199 16.6395 12.3549 16.4985 12.59C16.3575 12.825 16.2664 12.9543 16.2253 12.9778C16.2047 12.9896 16.1841 13.0013 16.1636 13.0131L16.1636 12.8632C16.1636 12.7634 16.1577 12.7104 16.146 12.7046C16.1401 12.7016 16.1342 12.6987 16.1283 12.6958C16.0931 12.7663 16.0578 12.8368 16.0225 12.9073C15.952 13.0483 15.8227 13.2422 15.6347 13.4891C15.4467 13.7359 15.2351 13.9738 15.0001 14.203C14.765 14.4322 14.5182 14.6438 14.2597 14.8376C14.0011 15.0316 13.7396 15.2049 13.4752 15.3577C13.2108 15.5105 12.9904 15.6251 12.8141 15.7015C12.6378 15.7779 12.441 15.8484 12.2235 15.913C12.0061 15.9777 11.8827 16.0217 11.8533 16.0452C11.824 16.0687 11.7946 16.0746 11.7652 16.0629C11.7358 16.0511 11.7064 16.0541 11.677 16.0717C11.6477 16.0893 11.5683 16.1099 11.439 16.1334C11.3098 16.1569 11.1511 16.1774 10.9631 16.1951C10.775 16.2127 10.6663 16.2215 10.637 16.2215L10.5929 16.2215L10.5929 16.151C10.4871 16.1569 10.3813 16.1628 10.2756 16.1686C10.064 16.1804 9.76725 16.1569 9.3853 16.0981C9.19431 16.0687 9.00335 16.0393 8.81236 16.01C8.81529 15.9982 8.81823 15.9865 8.82119 15.9747C8.82705 15.9512 8.75362 15.9189 8.60082 15.8778C8.44803 15.8366 8.35695 15.8073 8.32758 15.7896C8.2982 15.772 8.28645 15.7514 8.29231 15.7279C8.2982 15.7044 8.18654 15.6486 7.95738 15.5604C7.72819 15.4723 7.59891 15.4135 7.56954 15.3841C7.55485 15.3695 7.54016 15.3548 7.52545 15.3401C7.51665 15.3489 7.50783 15.3577 7.49901 15.3665C7.48139 15.3841 7.34331 15.3166 7.08475 15.1638C6.82619 15.011 6.59407 14.8494 6.38839 14.679C6.18275 14.5086 5.98589 14.3206 5.79784 14.1149C5.60981 13.9092 5.44526 13.7036 5.30422 13.4979C5.16322 13.2922 5.04862 13.1071 4.96047 12.9426C4.87232 12.778 4.77244 12.5635 4.66078 12.2991C4.54915 12.0347 4.45807 11.782 4.38753 11.5411C4.31703 11.3001 4.25532 10.9858 4.20244 10.5979C4.14955 10.2101 4.12604 9.85753 4.13193 9.54022C4.1378 9.22288 4.15837 8.94084 4.19361 8.69403C4.22888 8.44722 4.27294 8.22393 4.32582 8.02414C4.37874 7.82433 4.44335 7.62162 4.51974 7.41594C4.59614 7.21026 4.67547 7.02223 4.75776 6.85182C4.84002 6.68141 4.95461 6.47867 5.10151 6.24362C5.24841 6.00857 5.32187 5.87635 5.32187 5.84698L5.32187 5.80292C5.30422 5.81171 5.28661 5.82054 5.26899 5.82936C5.25134 5.83816 5.23372 5.84698 5.2161 5.8558C5.22197 5.84405 5.22786 5.83229 5.23372 5.82054C5.24548 5.79703 5.43647 5.5796 5.80666 5.16827C6.17685 4.75692 6.50299 4.4543 6.78506 4.26038C7.0671 4.06648 7.3286 3.91076 7.56954 3.79324C7.81045 3.67571 8.06315 3.57287 8.32758 3.48472C8.592 3.39657 8.82119 3.33193 9.01511 3.2908C9.209 3.24967 9.40585 3.21736 9.60567 3.19385C9.80545 3.17034 10.0816 3.16152 10.4342 3.16741C10.7868 3.17327 11.0924 3.19678 11.3509 3.23791C11.6095 3.27904 11.871 3.33782 12.1354 3.41422C12.3998 3.49058 12.6378 3.57287 12.8494 3.66099C13.0609 3.74914 13.2813 3.85788 13.5104 3.98713C13.7396 4.11641 13.9688 4.26627 14.1979 4.43668C14.4271 4.60709 14.6504 4.79808 14.8679 5.00962C15.0853 5.22116 15.2674 5.41801 15.4144 5.60017C15.5613 5.78234 15.6817 5.94393 15.7757 6.08496C15.8697 6.226 15.9873 6.43168 16.1283 6.70196C16.2693 6.97228 16.3839 7.22495 16.4721 7.46C16.5602 7.69505 16.6337 7.92717 16.6924 8.15636C16.7512 8.38551 16.7982 8.62057 16.8335 8.86151C16.8511 8.98197 16.8687 9.10242 16.8863 9.22288C16.8775 9.09949 16.8687 8.9761 16.8599 8.85268C16.8423 8.60588 16.807 8.35907 16.7541 8.11227C16.7012 7.86546 16.6337 7.62748 16.5514 7.39832C16.4691 7.16913 16.378 6.96346 16.2782 6.78129C16.1783 6.59912 16.1342 6.49042 16.146 6.45516C16.1577 6.41992 16.1547 6.37879 16.1371 6.33177C16.1195 6.28475 16.0578 6.17898 15.952 6.01446C15.8463 5.84991 15.6993 5.65306 15.5113 5.42387C15.3233 5.19471 15.1294 4.98611 14.9295 4.79808C14.7298 4.61002 14.5211 4.43668 14.3037 4.27802C14.0863 4.11937 13.8836 3.9842 13.6955 3.87256C13.5075 3.7609 13.2078 3.61107 12.7965 3.42301C12.3851 3.23498 12.0796 3.10277 11.8798 3.02637C11.68 2.94998 11.4772 2.89416 11.2716 2.8589C11.1687 2.84128 11.0659 2.82363 10.9631 2.80601C10.9925 2.80308 11.0218 2.80015 11.0512 2.79719C11.11 2.79132 11.2158 2.80308 11.3685 2.83245C11.4449 2.84714 11.5213 2.86183 11.5977 2.87651L11.5977 2.82363C11.5977 2.78839 11.5331 2.75899 11.4038 2.73551C11.2745 2.712 11.0835 2.68849 10.8309 2.66497C10.5782 2.64146 10.3549 2.62974 10.161 2.62974C9.96704 2.62974 9.74081 2.64146 9.48225 2.66497C9.22372 2.68849 8.92403 2.73844 8.58318 2.81484C8.24236 2.89123 7.96618 2.97056 7.75464 3.05282C7.5431 3.13508 7.42557 3.16152 7.40206 3.13214C7.37855 3.10277 7.27278 3.13801 7.08475 3.23791C6.89669 3.33782 6.78213 3.38777 6.74097 3.38777L6.67929 3.38777C6.68222 3.37602 6.68515 3.36426 6.68808 3.35251C6.69398 3.329 6.76741 3.26729 6.90845 3.16741C7.04948 3.0675 7.24927 2.9588 7.50783 2.84128C7.76639 2.72375 7.975 2.63853 8.13365 2.58565C8.29231 2.53276 8.48623 2.47988 8.71542 2.42699C8.94458 2.37411 9.24134 2.33005 9.60567 2.29478C9.97 2.25951 10.2873 2.24483 10.5576 2.25069C10.8279 2.25658 11.0277 2.26834 11.157 2.28596C11.2216 2.29478 11.2863 2.3036 11.3509 2.3124L11.3509 2.2419C11.3509 2.19487 11.2393 2.16257 11.016 2.14492C10.7927 2.1273 10.6781 2.10672 10.6722 2.08324C10.6693 2.07149 10.6663 2.05973 10.6634 2.04797C10.7662 2.05384 10.8691 2.05973 10.9719 2.06559C11.1776 2.07735 11.4009 2.10379 11.6418 2.14492C11.8827 2.18608 12.1853 2.26245 12.5497 2.37411C12.914 2.48574 13.2636 2.62091 13.5986 2.77957C13.9335 2.93822 14.2127 3.08808 14.436 3.22909C14.6593 3.37013 14.7973 3.46414 14.8502 3.51116C14.9031 3.55818 14.9354 3.58167 14.9472 3.58167L14.9648 3.58167C14.9589 3.56994 14.9531 3.55818 14.9472 3.54643C14.9413 3.53467 14.9354 3.52292 14.9295 3.51116C14.9354 3.50823 14.9413 3.5053 14.9472 3.50234C14.9589 3.49648 15.0853 3.59638 15.3262 3.80203C15.5671 4.00771 15.7757 4.20456 15.952 4.39262C16.1283 4.58065 16.3046 4.78925 16.4809 5.01841C16.6572 5.2476 16.8247 5.49147 16.9833 5.75001C17.142 6.00857 17.2889 6.28182 17.424 6.56975C17.5592 6.85769 17.6356 7.00755 17.6532 7.0193C17.662 7.02517 17.6708 7.03106 17.6796 7.03692C17.6679 6.97228 17.6561 6.90764 17.6444 6.843C17.6209 6.71372 17.5739 6.558 17.5034 6.37583C17.4328 6.19366 17.3036 5.94393 17.1155 5.62662C16.9275 5.30931 16.7159 5.00669 16.4809 4.71872C16.2458 4.43079 16.0372 4.1987 15.8551 4.02239C15.6729 3.84612 15.5524 3.73739 15.4937 3.69626C15.4643 3.67571 15.4349 3.65513 15.4055 3.63455C15.4144 3.62282 15.4232 3.61107 15.432 3.59931C15.4408 3.58756 15.4496 3.5758 15.4584 3.56405C15.573 3.67275 15.6876 3.78148 15.8022 3.89018C16.0314 4.10761 16.2282 4.31326 16.3928 4.50718C16.5573 4.7011 16.7277 4.9244 16.904 5.1771C16.9921 5.30342 17.0803 5.42976 17.1684 5.55611C17.1713 5.55022 17.1743 5.54436 17.1772 5.53847C17.1831 5.52671 17.1508 5.45034 17.0803 5.30931C17.045 5.23878 17.0098 5.16827 16.9745 5.09777C16.9862 5.10363 16.998 5.10949 17.0098 5.11539C17.0333 5.12714 17.0803 5.19178 17.1508 5.30931C17.2213 5.42683 17.2624 5.48558 17.2742 5.48558L17.2918 5.48558C17.2624 5.43859 17.2331 5.39157 17.2037 5.34454C17.1449 5.25053 16.9892 5.04485 16.7365 4.72754C16.4838 4.41024 16.2605 4.15461 16.0666 3.96068C15.8727 3.76679 15.6347 3.55229 15.3526 3.31724C15.0706 3.08219 14.8855 2.91471 14.7973 2.81484C14.7092 2.71493 14.5153 2.58565 14.2156 2.42699C13.9159 2.26834 13.5457 2.10379 13.105 1.93338C12.6643 1.76297 12.1824 1.619 11.6594 1.50148C11.1364 1.38395 10.778 1.31049 10.5841 1.28111C10.3901 1.25174 10.2021 1.23412 10.02 1.22823C9.83779 1.22237 9.62035 1.23116 9.36768 1.25467Z" fill="#2a77be" fill-rule="nonzero" opacity="1" stroke="none"/>
</g>
</svg>
